<svg xmlns="http://www.w3.org/2000/svg" xmlns:xlink="http://www.w3.org/1999/xlink" version="1.1" x="0px" y="0px"
     viewBox="0 0 1000 1000" enable-background="new 0 0 1000 1000" xml:space="preserve" fill="#007d93">
<g><g><path d="M863.4,128.4C834.8,745,573.5,879.7,500,904.3c-73.5-32.7-334.8-187.9-367.5-775.9c85.8,24.5,204.2,44.9,367.5,44.9C663.3,173.3,781.8,148.8,863.4,128.4 M949.2,10c0,0-147,81.7-449.2,81.7C197.8,91.7,50.8,10,50.8,10C50.8,867.5,500,990,500,990S949.2,908.3,949.2,10L949.2,10z"/></g>
    <g><path d="M218.3,361.2c0,0,49-44.9,114.3-44.9c53.1,0,122.5,57.2,122.5,57.2s-53.1,57.2-126.6,57.2C259.1,426.5,218.3,361.2,218.3,361.2z"/></g>
    <g><path d="M663.3,581.7c0,0-89.8,40.8-163.3,40.8c-73.5,0-163.3-40.8-163.3-40.8s57.2,147,163.3,147C606.1,728.7,663.3,581.7,663.3,581.7L663.3,581.7z"/></g>
    <g><path d="M500,91.7V990c0,0,449.2-81.7,449.2-980C949.2,10,802.2,91.7,500,91.7z M671.5,426.5c-73.5,0-126.6-57.2-126.6-57.2s69.4-57.2,122.5-57.2c61.3,0,114.4,44.9,114.4,44.9S740.9,426.5,671.5,426.5z" fill="#080218" /></g></g>
</svg>